PathFileType	4	(X/Y/Z)	l_comf_01_markers.trc
DataRate	CameraRate	NumFrames	NumMarkers	Units	OrigDataRate	OrigDataStartFrame	OrigNumFrames
100.000000	100.000000	4	96	mm	100.000000	486	973
Frame#	Time	Torso1			Torso2			Torso3			RFemur1			RFemur2			RFemur3			RFemur4			LFemur1			LFemur2			LFemur4			RTibia1			RTibia2			RTibia3			RTibia4			LTibia2			LTibia3			LTibia4			LFoot1			LFoot2			LFoot3			RFoot2			RFoot3			LFemur3			LTibia1			RFoot1			Pelvis3			Pelvis4			Torso4			Pelvis1			Pelvis2			*30			*31			*32			*33			*34			*35			*36			*37			*38			*39			*40			*41			*42			*43			*44			*45			*46			*47			*48			*49			*50			*51			*52			*53			*54			*55			*56			*57			*58			*59			*60			*61			*62			*63			*64			Pelvis_RFemur_score			Pelvis_LFemur_score			RFemur_RTibia_score			RFemur_RTibia_sara			LFemur_LTibia_score			LFemur_LTibia_sara			RKnee			LKnee			RTibia_RFoot_score			LTibia_LFoot_score			USERMO0			USERMO1			USERMO2			USERMO3			USERMO4			USERMO5			USERMO6			USERMO7			USERMO8			USERMO9			USERMO10			USERMO11			USERMO12			USERMO13			USERMO14			USERMO15			USERMO16			USERMO17			USERMO18			USERMO19			USERMO20			
		X1	Y1	Z1	X2	Y2	Z2	X3	Y3	Z3	X4	Y4	Z4	X5	Y5	Z5	X6	Y6	Z6	X7	Y7	Z7	X8	Y8	Z8	X9	Y9	Z9	X10	Y10	Z10	X11	Y11	Z11	X12	Y12	Z12	X13	Y13	Z13	X14	Y14	Z14	X15	Y15	Z15	X16	Y16	Z16	X17	Y17	Z17	X18	Y18	Z18	X19	Y19	Z19	X20	Y20	Z20	X21	Y21	Z21	X22	Y22	Z22	X23	Y23	Z23	X24	Y24	Z24	X25	Y25	Z25	X26	Y26	Z26	X27	Y27	Z27	X28	Y28	Z28	X29	Y29	Z29	X30	Y30	Z30	X31	Y31	Z31	X32	Y32	Z32	X33	Y33	Z33	X34	Y34	Z34	X35	Y35	Z35	X36	Y36	Z36	X37	Y37	Z37	X38	Y38	Z38	X39	Y39	Z39	X40	Y40	Z40	X41	Y41	Z41	X42	Y42	Z42	X43	Y43	Z43	X44	Y44	Z44	X45	Y45	Z45	X46	Y46	Z46	X47	Y47	Z47	X48	Y48	Z48	X49	Y49	Z49	X50	Y50	Z50	X51	Y51	Z51	X52	Y52	Z52	X53	Y53	Z53	X54	Y54	Z54	X55	Y55	Z55	X56	Y56	Z56	X57	Y57	Z57	X58	Y58	Z58	X59	Y59	Z59	X60	Y60	Z60	X61	Y61	Z61	X62	Y62	Z62	X63	Y63	Z63	X64	Y64	Z64	X65	Y65	Z65	X66	Y66	Z66	X67	Y67	Z67	X68	Y68	Z68	X69	Y69	Z69	X70	Y70	Z70	X71	Y71	Z71	X72	Y72	Z72	X73	Y73	Z73	X74	Y74	Z74	X75	Y75	Z75	X76	Y76	Z76	X77	Y77	Z77	X78	Y78	Z78	X79	Y79	Z79	X80	Y80	Z80	X81	Y81	Z81	X82	Y82	Z82	X83	Y83	Z83	X84	Y84	Z84	X85	Y85	Z85	X86	Y86	Z86	X87	Y87	Z87	X88	Y88	Z88	X89	Y89	Z89	X90	Y90	Z90	X91	Y91	Z91	X92	Y92	Z92	X93	Y93	Z93	X94	Y94	Z94	X95	Y95	Z95	X96	Y96	Z96	

487	4.86	136.3260345458984	-2558.675048828125	1384.883422851562	297.5537109375	-2625.34814453125	1417.77490234375	-46.26641845703125	-2596.135009765625	1419.854858398438	303.4631652832031	-2661.848876953125	591.095947265625	299.0719909667969	-2641.983642578125	492.1326293945312	312.89453125	-2626.710693359375	543.5658569335938	325.3408203125	-2591.88232421875	551.5319213867188	9.958585739135742	-2487.1103515625	617.0941162109375	-14.0844841003418	-2567.701904296875	628.5958862304688	-6.577173233032227	-2540.127197265625	601.3720703125	303.0731811523438	-2697.540771484375	369.7458801269531	307.8447875976562	-2650.412841796875	396.1584777832031	291.9866027832031	-2720.5439453125	326.6333618164062	299.1468200683594	-2713.56494140625	404.2015686035156	16.49041366577148	-2514.447509765625	324.013427734375	32.77390289306641	-2508.669921875	260.070556640625	27.00971603393555	-2494.747314453125	369.2627868652344	104.4725036621094	-2621.1982421875	8.849042892456055	135.0166778564453	-2385.599365234375	7.014595985412598	74.50590515136719	-2419.140380859375	4.010692119598389	219.837646484375	-2829.61572265625	20.45086669921875	247.1690063476562	-2876.242431640625	46.13535690307617	10.27784156799316	-2544.73828125	529.1964721679688	9.144858360290527	-2561.13037109375	341.9356689453125	158.0965728759766	-2969.10791015625	192.05908203125	nan	nan	nan	nan	nan	nan	nan	nan	nan	nan	nan	nan	nan	nan	nan	nan	nan	nan	nan	nan	nan	1497.81591796875	1841.774047851562	614.4044799804688	2072.67578125	1753.509521484375	493.9259338378906	-3557.2333984375	-673.5715942382812	994.6402587890625	-3552.089111328125	-669.4232177734375	971.71826171875	1584.173461914062	1909.37060546875	704.2996826171875	-4061.163818359375	-931.4335327148438	-5125.93212890625	nan	nan	nan	nan	nan	nan	1445.598876953125	1364.227905273438	518.169921875	nan	nan	nan	1628.130004882812	1821.330810546875	657.9345703125	nan	nan	nan	nan	nan	nan	nan	nan	nan	nan	nan	nan	nan	nan	nan	nan	nan	nan	nan	nan	nan	nan	nan	nan	nan	nan	nan	nan	nan	nan	nan	nan	nan	nan	nan	nan	nan	nan	nan	nan	nan	nan	nan	nan	nan	nan	nan	nan	nan	nan	nan	nan	nan	nan	nan	nan	nan	nan	nan	nan	nan	nan	nan	nan	nan	nan	nan	nan	nan	nan	nan	nan	266.736572265625	-2595.77783203125	419.0159606933594	170.3149261474609	-2572.743408203125	432.1414794921875	23.14262580871582	-2557.4111328125	435.5881958007812	52.31178665161133	-2509.348876953125	352.888916015625	266.7369995117188	-2595.780029296875	419.0159912109375	23.14259910583496	-2557.409912109375	435.5880126953125	108.9862213134766	-2957.723876953125	184.1679382324219	79.88763427734375	-2588.584228515625	-4.422383308410645	1.801552057266235	-2.379759788513184	2.84091854095459	-0.0007206861046142876	-2.53673529624939	0.5913370847702026	0.1000000014901161	0.1000000014901161	0.1000000014901161	-0.05472640693187714	-0.03632472455501556	1.45372748374939	0.104665033519268	-2.475312948226929	0.006624777335673571	0.1000000014901161	0.1000000014901161	0.1000000014901161	2.768662452697754	1.658420085906982	-2.095701456069946	0.01961473561823368	-2.527668237686157	0.3085880279541016	0.1000000014901161	0.1000000014901161	0.1000000014901161	nan	nan	nan	nan	nan	nan	nan	nan	nan	0.4775926768779755	1.625181674957275	-0.183453693985939	0.3051612377166748	-2.643351554870605	0.5423235297203064	0.1000000014901161	0.1000000014901161	0.1000000014901161	2.214290380477905	1.350220680236816	-1.082045912742615	0.2083677500486374	-2.891655445098877	0.08621510863304138	0.1000000014901161	0.1000000014901161	0.1000000014901161	-0.6501308679580688	-1.141960859298706	1.012162327766418	0.3014635443687439	-2.686904430389404	0.3645327687263489	0.1000000014901161	0.1000000014901161	0.1000000014901161	
488	4.87	138.31005859375	-2543.861572265625	1387.410522460938	299.7439270019531	-2610.167724609375	1419.908447265625	-44.33866500854492	-2580.865234375	1422.7138671875	315.8519897460938	-2621.448486328125	600.1900024414062	301.6227722167969	-2616.943359375	495.1794738769531	316.4009399414062	-2603.623046875	547.8267211914062	328.845703125	-2568.811279296875	555.9669189453125	1.478315711021423	-2493.83984375	611.0877685546875	-12.84280204772949	-2562.952880859375	629.36865234375	-6.800261497497559	-2532.3671875	601.3372192382812	304.68505859375	-2673.28662109375	370.5621337890625	311.74462890625	-2622.9931640625	400.27685546875	295.1690673828125	-2692.898193359375	327.3591918945312	299.6422729492188	-2686.974609375	405.7933349609375	16.19621849060059	-2513.894775390625	323.2098693847656	32.36257171630859	-2507.5615234375	259.1023864746094	25.85793685913086	-2493.5068359375	368.37451171875	104.5269775390625	-2621.272216796875	8.835135459899902	134.8477630615234	-2385.684814453125	7.062533855438232	74.46395111083984	-2419.18994140625	3.996824026107788	227.6813049316406	-2786.151611328125	21.00683403015137	254.1769104003906	-2834.337646484375	45.31710433959961	10.41824531555176	-2542.14599609375	529.1777954101562	8.1177978515625	-2559.7353515625	343.3999938964844	160.1634063720703	-2932.8857421875	184.8357238769531	nan	nan	nan	nan	nan	nan	nan	nan	nan	nan	nan	nan	nan	nan	nan	nan	nan	nan	nan	nan	nan	1497.79443359375	1841.768310546875	614.4014282226562	2072.581787109375	1753.56884765625	494.2255249023438	nan	nan	nan	nan	nan	nan	1584.149169921875	1909.322998046875	704.3711547851562	nan	nan	nan	nan	nan	nan	nan	nan	nan	1445.648193359375	1364.15625	518.1227416992188	nan	nan	nan	1628.140502929688	1821.312133789062	657.9070434570312	nan	nan	nan	nan	nan	nan	nan	nan	nan	nan	nan	nan	nan	nan	nan	nan	nan	nan	nan	nan	nan	nan	nan	nan	nan	nan	nan	nan	nan	nan	nan	nan	nan	nan	nan	nan	nan	nan	nan	nan	nan	nan	nan	nan	nan	nan	nan	nan	nan	nan	nan	nan	nan	nan	nan	nan	nan	nan	nan	nan	nan	nan	nan	nan	nan	nan	nan	nan	nan	nan	nan	nan	267.1041259765625	-2575.54931640625	422.777099609375	171.1215972900391	-2550.867431640625	436.124755859375	26.99804306030273	-2558.996826171875	435.5643920898438	48.05296325683594	-2566.901123046875	338.1261596679688	267.10400390625	-2575.550048828125	422.7770080566406	26.99799919128418	-2559	435.5639953613281	108.7799072265625	-2919.383544921875	175.0627593994141	80.20693206787109	-2590.0625	-4.067179203033447	-1.004479765892029	1.14731776714325	-1.425886034965515	-0.002294135745614767	-2.534770488739014	0.5900581479072571	0.1000000014901161	0.1000000014901161	0.1000000014901161	-0.05534413829445839	-0.03728474304080009	1.454431653022766	0.1046129018068314	-2.475382328033447	0.006631498225033283	0.1000000014901161	0.1000000014901161	0.1000000014901161	2.766506195068359	1.642037987709045	-2.091228008270264	0.01896033622324467	-2.526780605316162	0.3083799183368683	0.1000000014901161	0.1000000014901161	0.1000000014901161	nan	nan	nan	nan	nan	nan	nan	nan	nan	0.3784571886062622	1.679020881652832	-0.2730118632316589	0.3107936978340149	-2.615693807601929	0.5492410063743591	0.1000000014901161	0.1000000014901161	0.1000000014901161	2.260296106338501	1.367557644844055	-1.031504273414612	0.2140072137117386	-2.851125240325928	0.0837198942899704	0.1000000014901161	0.1000000014901161	0.1000000014901161	-0.6830430030822754	-1.163065791130066	0.9509217143058777	0.3045555353164673	-2.66032338142395	0.36655193567276	0.1000000014901161	0.1000000014901161	0.1000000014901161	
489	4.88	140.4311370849609	-2528.945556640625	1389.81591796875	301.6486206054688	-2595.596923828125	1422.058715820312	-42.3153190612793	-2565.6572265625	1425.446044921875	317.7563171386719	-2598.7900390625	602.9014282226562	304.2928466796875	-2591.34619140625	498.5739440917969	318.9002990722656	-2579.64306640625	551.548095703125	332.354736328125	-2545.47412109375	560.7335815429688	0.4017530977725983	-2489.70263671875	610.1624755859375	-11.67963600158691	-2557.443115234375	630.8034057617188	nan	nan	nan	307.5755920410156	-2644.582275390625	372.8101501464844	315.2105102539062	-2595.3291015625	403.8075866699219	298.6117248535156	-2662.67578125	328.685302734375	294.1986694335938	-2670.681640625	402.0437622070312	16.5205078125	-2512.9404296875	322.9099731445312	32.49404907226562	-2506.671630859375	258.9750366210938	25.97941398620605	-2491.56591796875	368.0657958984375	103.9001083374023	-2621.14306640625	7.938458919525146	134.7215881347656	-2385.7294921875	7.074389457702637	74.43013763427734	-2419.219970703125	3.989079475402832	234.1592712402344	-2746.157470703125	18.6433219909668	260.799560546875	-2790.722900390625	44.05654144287109	10.7111234664917	-2538.365478515625	529.6881103515625	8.647419929504395	-2557.6298828125	343.6632690429688	161.9193420410156	-2902.527099609375	174.1326599121094	nan	nan	nan	nan	nan	nan	nan	nan	nan	nan	nan	nan	nan	nan	nan	nan	nan	nan	nan	nan	nan	1497.680297851562	1841.721069335938	614.289794921875	nan	nan	nan	nan	nan	nan	nan	nan	nan	1584.215209960938	1909.386840820312	704.32275390625	nan	nan	nan	nan	nan	nan	nan	nan	nan	1445.629638671875	1364.197021484375	518.1934814453125	nan	nan	nan	1628.136840820312	1821.317138671875	657.91455078125	nan	nan	nan	nan	nan	nan	nan	nan	nan	nan	nan	nan	nan	nan	nan	nan	nan	nan	nan	nan	nan	nan	nan	nan	nan	nan	nan	nan	nan	nan	nan	nan	nan	nan	nan	nan	nan	nan	nan	nan	nan	nan	nan	nan	nan	nan	nan	nan	nan	nan	nan	nan	nan	nan	nan	nan	nan	nan	nan	nan	nan	nan	nan	nan	nan	nan	nan	nan	nan	nan	nan	nan	271.0216369628906	-2549.267578125	427.7166442871094	175.8284759521484	-2520.334716796875	437.7738952636719	nan	nan	nan	nan	nan	nan	271.0220031738281	-2549.27001953125	427.7170104980469	nan	nan	nan	110.8555908203125	-2876.63623046875	148.2159118652344	80.19058990478516	-2590.88427734375	-4.120884418487549	nan	nan	nan	nan	nan	nan	nan	nan	nan	-0.05076161772012711	-0.03875598311424255	1.452044129371643	0.1043506115674973	-2.475364446640015	0.006333976052701473	0.1000000014901161	0.1000000014901161	0.1000000014901161	2.756782293319702	1.630120396614075	-2.094469308853149	0.01927290670573711	-2.52547812461853	0.3083501160144806	0.1000000014901161	0.1000000014901161	0.1000000014901161	nan	nan	nan	nan	nan	nan	nan	nan	nan	0.4201322197914124	1.674556493759155	-0.267177939414978	0.3131258487701416	-2.59165620803833	0.5525073409080505	0.1000000014901161	0.1000000014901161	0.1000000014901161	2.212290525436401	1.423806071281433	-0.8681694269180298	0.2189594060182571	-2.813135862350464	0.07894417643547058	0.1000000014901161	0.1000000014901161	0.1000000014901161	-0.7082240581512451	-1.240747332572937	0.8089813590049744	0.3071820139884949	-2.634071826934814	0.3683533370494843	0.1000000014901161	0.1000000014901161	0.1000000014901161	
490	4.89	142.5597686767578	-2513.6689453125	1392.327514648438	303.4483642578125	-2580.859130859375	1424.247436523438	-40.62220001220703	-2550.861083984375	1428.3447265625	310.3791809082031	-2594.1005859375	599.82568359375	307.1965637207031	-2565.619140625	502.1784057617188	321.2437438964844	-2555.505126953125	555.2335815429688	335.7613525390625	-2522.03369140625	565.7583618164062	1.73744809627533	-2484.778564453125	610.1748657226562	-10.78033351898193	-2550.698974609375	632.5447998046875	nan	nan	nan	310.4847412109375	-2615.619140625	373.86669921875	318.3116760253906	-2567.640625	407.0102844238281	302.0327758789062	-2631.83544921875	328.9754333496094	295.5231628417969	-2642.472412109375	401.9892883300781	17.15732955932617	-2510.9189453125	323.41259765625	32.92042922973633	-2505.7490234375	259.2859802246094	26.78400230407715	-2488.85791015625	368.2224731445312	104.0580062866211	-2621.19970703125	8.045835494995117	134.625244140625	-2385.733154296875	7.054078102111816	74.50550079345703	-2419.252685546875	4.043173313140869	242.2676239013672	-2699.3603515625	18.70475006103516	268.1167602539062	-2746.79833984375	41.36672973632812	11.58356952667236	-2534.736572265625	531.0689086914062	8.453689575195312	-2554.654052734375	344.4432067871094	nan	nan	nan	nan	nan	nan	nan	nan	nan	nan	nan	nan	nan	nan	nan	nan	nan	nan	-3557.23291015625	-673.6277465820312	994.6585083007812	-3551.955322265625	-669.3590698242188	971.7401733398438	1497.822631835938	1841.7578125	614.3754272460938	2072.708740234375	1753.492065429688	494.0186462402344	nan	nan	nan	nan	nan	nan	1584.159423828125	1909.367431640625	704.2925415039062	nan	nan	nan	nan	nan	nan	nan	nan	nan	1445.544921875	1364.28564453125	518.2074584960938	nan	nan	nan	1628.120361328125	1821.338256835938	657.9749755859375	nan	nan	nan	nan	nan	nan	nan	nan	nan	nan	nan	nan	nan	nan	nan	nan	nan	nan	nan	nan	nan	nan	nan	nan	nan	nan	nan	nan	nan	nan	nan	nan	nan	nan	nan	nan	nan	nan	nan	nan	nan	nan	nan	nan	nan	nan	nan	nan	nan	nan	nan	nan	nan	nan	nan	nan	nan	nan	nan	nan	nan	nan	nan	nan	nan	nan	nan	nan	nan	nan	nan	nan	278.2410583496094	-2514.4736328125	432.4231567382812	183.6634368896484	-2483.142578125	440.9928588867188	nan	nan	nan	nan	nan	nan	278.2409973144531	-2514.469970703125	432.4230041503906	nan	nan	nan	nan	nan	nan	79.68822479248047	-2592.74072265625	-3.321563005447388	nan	nan	nan	nan	nan	nan	nan	nan	nan	-0.05045570433139801	-0.03776878118515015	1.452890992164612	0.104396253824234	-2.475395441055298	0.006381029263138771	0.1000000014901161	0.1000000014901161	0.1000000014901161	2.778040170669556	1.590484380722046	-2.095092535018921	0.01953806728124619	-2.523510217666626	0.3089106678962708	0.1000000014901161	0.1000000014901161	0.1000000014901161	nan	nan	nan	nan	nan	nan	nan	nan	nan	0.5811582803726196	1.626472949981689	-0.1522136628627777	0.3130090832710266	-2.571569204330444	0.552446186542511	0.1000000014901161	0.1000000014901161	0.1000000014901161	nan	nan	nan	nan	nan	nan	nan	nan	nan	-0.7043001055717468	-1.264467597007751	0.7575879096984863	0.3103062510490417	-2.60492730140686	0.3699094355106354	0.1000000014901161	0.1000000014901161	0.1000000014901161	
